<svg xmlns="http://www.w3.org/2000/svg" xmlns:xlink="http://www.w3.org/1999/xlink" width="1202" zoomAndPan="magnify" viewBox="0 0 901.5 448.499987" height="598" preserveAspectRatio="xMidYMid meet" version="1.2"><defs><clipPath id="319e76d387"><path d="M 21 0 L 498 0 L 498 331.128906 L 21 331.128906 Z M 21 0 "/></clipPath><clipPath id="567b3eedc7"><path d="M 659 0 L 900.507812 0 L 900.507812 331 L 659 331 Z M 659 0 "/></clipPath></defs><g id="8cb680bf8c"><g clip-rule="nonzero" clip-path="url(#319e76d387)"><path style=" stroke:none;fill-rule:nonzero;fill:#0aff73;fill-opacity:1;" d="M 141.714844 0 L 21.234375 330.664062 C 21.234375 330.664062 122.671875 339.175781 151.363281 284.074219 C 159.34375 268.742188 184.800781 208.996094 184.800781 208.996094 L 194.785156 182.167969 L 230.3125 84.339844 C 230.332031 84.273438 230.402344 84.230469 230.476562 84.230469 L 422.648438 84.230469 C 425.984375 84.230469 431.285156 80.90625 438.554688 74.253906 C 445.835938 67.589844 453.339844 59.691406 461.042969 50.535156 C 468.746094 41.394531 476.027344 32.140625 482.886719 22.785156 C 489.65625 13.554688 494.515625 6.054688 497.4375 0.265625 C 497.496094 0.144531 497.40625 0.0117188 497.273438 0.0117188 L 141.714844 0.0117188 Z M 141.714844 0 "/></g><path style=" stroke:none;fill-rule:nonzero;fill:#ffffff;fill-opacity:1;" d="M 576.867188 330.664062 L 697.277344 0.234375 C 697.324219 0.121094 697.234375 0 697.113281 0 L 569.441406 0 C 569.441406 0 569.375 0 569.339844 0.0351562 C 563.515625 3.777344 556.546875 9.898438 548.453125 18.40625 C 540.347656 26.941406 532.433594 35.78125 524.742188 44.9375 C 517.046875 54.089844 510.390625 62.398438 504.777344 69.886719 C 499.152344 77.375 496.136719 81.941406 495.714844 83.609375 L 495.714844 84.230469 L 546.652344 84.230469 C 546.773438 84.230469 546.863281 84.351562 546.820312 84.464844 L 456.996094 330.664062 Z M 576.867188 330.664062 "/><g clip-rule="nonzero" clip-path="url(#567b3eedc7)"><path style=" stroke:none;fill-rule:nonzero;fill:#ffffff;fill-opacity:1;" d="M 779.761719 330.664062 L 900.265625 0 L 772.335938 0 C 772.335938 0 772.269531 0 772.238281 0.0351562 C 766.414062 3.777344 759.441406 9.898438 751.347656 18.40625 C 743.246094 26.941406 735.332031 35.78125 727.636719 44.9375 C 719.945312 54.089844 713.285156 62.398438 707.671875 69.886719 C 702.046875 77.375 699.035156 81.941406 698.613281 83.609375 L 698.613281 84.230469 L 749.546875 84.230469 C 749.671875 84.230469 749.757812 84.351562 749.714844 84.464844 L 659.894531 330.664062 Z M 779.761719 330.664062 "/></g><path style=" stroke:none;fill-rule:nonzero;fill:#0aff73;fill-opacity:1;" d="M 400.582031 118.691406 C 370.023438 197.398438 333.570312 214.417969 280.511719 214.417969 C 249.941406 214.417969 225.164062 196.109375 225.164062 165.558594 C 225.164062 143.71875 245.53125 118.691406 276.089844 118.691406 Z M 400.582031 118.691406 "/><g style="fill:#ffffff;fill-opacity:1;"><g transform="translate(20.989774, 410.342694)"><path style="stroke:none" d="M 10.6875 -33.640625 L 34.578125 -33.640625 L 33.3125 -27.71875 L 16.421875 -27.71875 L 14.78125 -19.96875 L 29.5625 -19.96875 L 28.328125 -14.125 L 13.546875 -14.125 L 10.5625 0 L 3.5625 0 Z M 10.6875 -33.640625 "/></g></g><g style="fill:#ffffff;fill-opacity:1;"><g transform="translate(85.848057, 410.342694)"><path style="stroke:none" d="M 10.015625 0 L 3.015625 0 L 10.171875 -33.6875 L 17.15625 -33.6875 Z M 10.015625 0 "/></g></g><g style="fill:#ffffff;fill-opacity:1;"><g transform="translate(135.125146, 410.342694)"><path style="stroke:none" d="M 16.5 -27.828125 L 14.578125 -18.78125 L 22.546875 -18.78125 C 24.128906 -18.78125 25.359375 -18.960938 26.234375 -19.328125 C 27.773438 -19.972656 28.75 -21.238281 29.15625 -23.125 C 29.582031 -25.164062 29.191406 -26.535156 27.984375 -27.234375 C 27.304688 -27.628906 26.203125 -27.828125 24.671875 -27.828125 Z M 35.390625 -30.453125 C 35.941406 -29.597656 36.316406 -28.65625 36.515625 -27.625 C 36.722656 -26.59375 36.691406 -25.410156 36.421875 -24.078125 C 36.066406 -22.484375 35.320312 -20.910156 34.1875 -19.359375 C 33.0625 -17.816406 31.5 -16.726562 29.5 -16.09375 C 30.914062 -15.46875 31.820312 -14.578125 32.21875 -13.421875 C 32.625 -12.273438 32.578125 -10.519531 32.078125 -8.15625 L 31.609375 -5.890625 C 31.285156 -4.359375 31.125 -3.316406 31.125 -2.765625 C 31.125 -1.898438 31.410156 -1.257812 31.984375 -0.84375 L 31.828125 0 L 24.078125 0 C 24.023438 -0.75 24 -1.351562 24 -1.8125 C 24.007812 -2.75 24.113281 -3.710938 24.3125 -4.703125 L 24.921875 -7.84375 C 25.347656 -9.988281 25.257812 -11.414062 24.65625 -12.125 C 24.0625 -12.84375 22.726562 -13.203125 20.65625 -13.203125 L 13.390625 -13.203125 L 10.609375 0 L 3.71875 0 L 10.875 -33.6875 L 27.390625 -33.6875 C 29.742188 -33.632812 31.5 -33.34375 32.65625 -32.8125 C 33.8125 -32.28125 34.722656 -31.492188 35.390625 -30.453125 Z M 35.390625 -30.453125 "/></g></g><g style="fill:#ffffff;fill-opacity:1;"><g transform="translate(205.192391, 410.342694)"><path style="stroke:none" d="M 10.859375 -10.390625 C 10.742188 -8.859375 10.914062 -7.710938 11.375 -6.953125 C 12.226562 -5.554688 14.039062 -4.859375 16.8125 -4.859375 C 18.476562 -4.859375 19.863281 -5.046875 20.96875 -5.421875 C 23.09375 -6.117188 24.351562 -7.421875 24.75 -9.328125 C 24.988281 -10.429688 24.679688 -11.289062 23.828125 -11.90625 C 22.992188 -12.5 21.578125 -13.023438 19.578125 -13.484375 L 16.171875 -14.28125 C 12.835938 -15.070312 10.597656 -15.929688 9.453125 -16.859375 C 7.523438 -18.410156 6.910156 -20.84375 7.609375 -24.15625 C 8.242188 -27.164062 9.867188 -29.664062 12.484375 -31.65625 C 15.109375 -33.65625 18.546875 -34.65625 22.796875 -34.65625 C 26.347656 -34.65625 29.175781 -33.710938 31.28125 -31.828125 C 33.382812 -29.953125 34.113281 -27.226562 33.46875 -23.65625 L 26.71875 -23.65625 C 27.03125 -25.675781 26.457031 -27.113281 25 -27.96875 C 24.019531 -28.53125 22.71875 -28.8125 21.09375 -28.8125 C 19.28125 -28.8125 17.75 -28.445312 16.5 -27.71875 C 15.257812 -26.988281 14.503906 -25.96875 14.234375 -24.65625 C 13.972656 -23.445312 14.316406 -22.546875 15.265625 -21.953125 C 15.859375 -21.554688 17.222656 -21.09375 19.359375 -20.5625 L 24.859375 -19.171875 C 27.265625 -18.554688 29.007812 -17.738281 30.09375 -16.71875 C 31.769531 -15.132812 32.285156 -12.84375 31.640625 -9.84375 C 30.992188 -6.769531 29.273438 -4.210938 26.484375 -2.171875 C 23.691406 -0.140625 20.148438 0.875 15.859375 0.875 C 11.472656 0.875 8.234375 -0.125 6.140625 -2.125 C 4.054688 -4.132812 3.390625 -6.890625 4.140625 -10.390625 Z M 10.859375 -10.390625 "/></g></g><g style="fill:#ffffff;fill-opacity:1;"><g transform="translate(272.678002, 410.342694)"><path style="stroke:none" d="M 35.1875 -33.6875 L 33.90625 -27.71875 L 23.828125 -27.71875 L 17.953125 0 L 10.875 0 L 16.75 -27.71875 L 6.625 -27.71875 L 7.90625 -33.6875 Z M 35.1875 -33.6875 "/></g></g><g style="fill:#ffffff;fill-opacity:1;"><g transform="translate(337.536301, 410.342694)"><path style="stroke:none" d=""/></g></g><g style="fill:#0aff73;fill-opacity:1;"><g transform="translate(386.819654, 410.342694)"><path style="stroke:none" d="M 34.34375 -27.71875 L 16.515625 -27.71875 L 15.015625 -20.5625 L 31.375 -20.5625 L 30.109375 -14.71875 L 13.75 -14.71875 L 11.921875 -6.0625 L 30.578125 -6.0625 L 29.296875 0 L 3.765625 0 L 10.921875 -33.6875 L 35.625 -33.6875 Z M 34.34375 -27.71875 "/></g></g><g style="fill:#0aff73;fill-opacity:1;"><g transform="translate(454.305264, 410.342694)"><path style="stroke:none" d="M 10.71875 -33.6875 L 17.75 -33.6875 L 11.875 -6.0625 L 28.5625 -6.0625 L 27.28125 0 L 3.5625 0 Z M 10.71875 -33.6875 "/></g></g><g style="fill:#0aff73;fill-opacity:1;"><g transform="translate(519.163547, 410.342694)"><path style="stroke:none" d="M 34.34375 -27.71875 L 16.515625 -27.71875 L 15.015625 -20.5625 L 31.375 -20.5625 L 30.109375 -14.71875 L 13.75 -14.71875 L 11.921875 -6.0625 L 30.578125 -6.0625 L 29.296875 0 L 3.765625 0 L 10.921875 -33.6875 L 35.625 -33.6875 Z M 34.34375 -27.71875 "/></g></g><g style="fill:#0aff73;fill-opacity:1;"><g transform="translate(586.649158, 410.342694)"><path style="stroke:none" d="M 30.4375 -33.6875 L 37.75 -33.6875 L 19.109375 0 L 12.453125 0 L 8.21875 -33.6875 L 15.75 -33.6875 L 17.625 -8.109375 Z M 30.4375 -33.6875 "/></g></g><g style="fill:#0aff73;fill-opacity:1;"><g transform="translate(654.134769, 410.342694)"><path style="stroke:none" d="M 34.34375 -27.71875 L 16.515625 -27.71875 L 15.015625 -20.5625 L 31.375 -20.5625 L 30.109375 -14.71875 L 13.75 -14.71875 L 11.921875 -6.0625 L 30.578125 -6.0625 L 29.296875 0 L 3.765625 0 L 10.921875 -33.6875 L 35.625 -33.6875 Z M 34.34375 -27.71875 "/></g></g><g style="fill:#0aff73;fill-opacity:1;"><g transform="translate(721.620362, 410.342694)"><path style="stroke:none" d="M 10.609375 -33.6875 L 17.984375 -33.6875 L 26.390625 -10.171875 L 31.390625 -33.6875 L 37.953125 -33.6875 L 30.796875 0 L 23.765625 0 L 15.078125 -23.921875 L 10.015625 0 L 3.453125 0 Z M 10.609375 -33.6875 "/></g></g></g></svg>